<svg width="46" height="36" viewBox="0 0 46 36" fill="none" xmlns="http://www.w3.org/2000/svg">
<path d="M19.9444 0.0442981C8.94651 0.0442981 0 6.99909 0 15.5486C0 24.0981 8.94651 31.0529 19.9444 31.0529C23.3065 31.0529 26.6116 30.4328 29.4038 29.2367C29.6275 29.4459 29.8754 29.6387 30.1446 29.8126L35.843 34.2424C36.3692 34.7027 37.0108 35.0745 37.7285 35.335C38.4462 35.5955 39.2249 35.7392 40.0166 35.7573C40.8083 35.7754 41.5965 35.6676 42.3327 35.4403C43.0688 35.2131 43.7375 34.8713 44.2976 34.4359C44.8577 34.0005 45.2974 33.4807 45.5897 32.9084C45.882 32.3361 46.0208 31.7234 45.9975 31.1079C45.9742 30.4924 45.7893 29.8872 45.4542 29.3292C45.1191 28.7713 44.6408 28.2725 44.0487 27.8635L38.3503 23.4337C38.0727 23.2178 37.7672 23.0248 37.4386 22.8578C38.9771 20.6872 39.9459 18.1622 39.9459 15.5043C39.9459 6.95479 30.9994 0 20.0014 0L19.9444 0.0442981ZM19.9444 4.4741C27.8652 4.4741 34.1905 9.39119 34.1905 15.5486C34.1905 18.4723 32.8228 21.1745 30.4295 23.1679C30.3725 23.2122 30.3155 23.2565 30.2586 23.3008C29.9894 23.4746 29.7414 23.6674 29.5178 23.8767C27.0105 25.6486 23.5914 26.6674 19.8875 26.6674C11.9667 26.6674 5.64143 21.7503 5.64143 15.5929C5.64143 9.43548 11.9667 4.5184 19.8875 4.5184L19.9444 4.4741Z" fill="#7D9FA9"/>
</svg>
