<svg width="20" height="21" viewBox="0 0 20 21" fill="none" xmlns="http://www.w3.org/2000/svg">
<path d="M13.75 0C12.475 0 11.375 0.875 10.7 2.2C11.825 3.55 12.5 5.4 12.5 7.525C12.5 8.25 12.425 8.9 12.275 9.55C12.75 9.825 13.225 10.025 13.75 10.025C15.825 10.025 17.5 7.775 17.5 5.025C17.5 2.275 15.825 0.025 13.75 0.025V0ZM6.25 2.5C4.175 2.5 2.5 4.75 2.5 7.5C2.5 10.25 4.175 12.5 6.25 12.5C8.325 12.5 10 10.25 10 7.5C10 4.75 8.325 2.5 6.25 2.5ZM18.125 10.4C17.05 11.675 15.575 12.45 13.9 12.5C14.575 13.45 15 14.6 15 15.85V17.5H20V13.35C20 12.05 19.225 10.925 18.125 10.375V10.4ZM1.875 12.9C0.775 13.45 0 14.575 0 15.875V20.025H12.5V15.875C12.5 14.575 11.725 13.45 10.625 12.9C9.5 14.225 7.975 15 6.25 15C4.525 15 3 14.2 1.875 12.9Z" fill="#44AFEB"/>
</svg>
